<svg width="24" height="24" viewBox="0 0 24 24" fill="none" xmlns="http://www.w3.org/2000/svg">
<path d="M18.9114 9.45383C18.9114 9.78724 18.9114 10.1207 18.9114 10.4541C20.1267 10.4541 21.3421 10.4541 22.5575 10.4541C22.5575 10.1207 22.5575 9.78724 22.5575 9.45383C21.3421 9.45383 20.1267 9.45383 18.9114 9.45383Z" fill="#FBCD01"/>
<path d="M19.335 11.787C19.1842 12.0846 19.0334 12.3822 18.8826 12.6798C19.9676 13.2272 21.0491 13.7815 22.1341 14.3289C22.2849 14.0314 22.4357 13.7338 22.5865 13.4362C21.5015 12.8887 20.42 12.3344 19.335 11.787Z" fill="#FBCD01"/>
<path d="M22.1341 5.57892C21.0491 6.12634 19.9676 6.68065 18.8826 7.22807C19.0334 7.52566 19.1842 7.82326 19.335 8.12085C20.418 7.56885 21.5035 7.02162 22.5865 6.46963C22.4357 6.17272 22.2849 5.87582 22.1341 5.57892Z" fill="#FBCD01"/>
<path d="M13.7632 5.10938C10.8025 6.06924 7.84118 7.02694 4.88037 7.98633C4.82406 7.97723 4.77294 7.95313 4.71436 7.95313H2.521C1.91662 7.95313 1.41357 8.45617 1.41357 9.06055V12.9785C1.41357 13.5829 1.91662 14.0859 2.521 14.0859H2.87451L5.26514 20.7832H8.79443L6.66357 14.4238C9.13872 14.9301 13.7612 15.918 13.7612 15.918C13.7612 16.9827 14.6651 17.832 15.7554 17.832C16.8456 17.832 17.7495 16.9827 17.7495 15.918V5.13281C17.7495 4.06811 16.8456 3.2168 15.7594 3.2168C14.6732 3.2168 13.7766 4.0559 13.7632 5.10938ZM15.7554 4.2168C16.3325 4.2168 16.7495 4.62946 16.7495 5.13281V15.918C16.7495 16.4213 16.3325 16.832 15.7554 16.832C15.1782 16.832 14.7612 16.4213 14.7612 15.918V5.13281C14.7612 4.62946 15.1782 4.2168 15.7554 4.2168ZM2.521 8.95312H4.71436C4.78204 8.95312 4.82178 8.99287 4.82178 9.06055V10.5195H2.41357V9.06055C2.41357 8.99287 2.45331 8.95312 2.521 8.95312ZM2.41357 11.5195H4.82178V12.9785C4.82178 13.0462 4.78204 13.0859 4.71436 13.0859H2.521C2.45331 13.0859 2.41357 13.0462 2.41357 12.9785V11.5195Z" fill="#FBCD01"/>
</svg>
